<mxfile host="app.diagrams.net" modified="2023-06-27T10:35:53.186Z" agent="Mozilla/5.0 (Macintosh; Intel Mac OS X 10_15_7) AppleWebKit/537.36 (KHTML, like Gecko) Chrome/109.0.0.0 Safari/537.36" version="21.5.1" etag="fX_7B6xH6_684ryS5Ag7" type="github">
  <diagram name="페이지-1" id="GAd9NMRuNRPh2d65W8yP">
    <mxGraphModel>
      <root>
        <mxCell id="0" />
        <mxCell id="1" parent="0" />
      </root>
    </mxGraphModel>
  </diagram>
</mxfile>
